<svg xmlns="http://www.w3.org/2000/svg" xmlns:xlink="http://www.w3.org/1999/xlink" width="60" height="60" viewBox="0 0 60 60"><defs><path id="yauca" d="M839 2047c0 .552-.447.999-1 .999h-55v1a.999.999 0 1 1-2 0v-1h-1a.999.999 0 1 1 0-2h1v-55a1 1 0 1 1 2 0v55h55a1 1 0 0 1 1 1zm-54-29a1 1 0 0 1 1-1.002h2a1 1 0 1 1 0 2h-2a1 1 0 0 1-1-.999zm0-4.002a.998.998 0 0 1 1-.999h2a1 1 0 1 1 0 2h-2a1 1 0 0 1-1-1zm0-4a1 1 0 0 1 1-1h2a1 1 0 1 1 0 2h-2a1 1 0 0 1-1-1zm0-4c0-.553.447-.999 1-.999h2a1 1 0 1 1 0 2h-2a1 1 0 0 1-1-1zm0-3.999a1 1 0 0 1 1-1h2a1 1 0 1 1 0 2h-2c-.553 0-1-.447-1-1zm0-4a1 1 0 0 1 1-1.001h2a1 1 0 1 1 0 2h-2a1 1 0 0 1-1-1zm0-4c0-.554.447-1 1-1h2a.999.999 0 1 1 0 2h-2c-.553 0-1-.447-1-1zm-.988 38.988c0-3.31 2.69-6 6-6 1.035 0 2.009.263 2.86.725l3.854-3.853A5.969 5.969 0 0 1 796 2021c0-3.309 2.69-6 6-6 3.309 0 6 2.691 6 6 0 1.035-.263 2.009-.727 2.858l4.867 4.868a5.964 5.964 0 0 1 6.883.836l8.703-8.703A5.964 5.964 0 0 1 827 2018c0-3.31 2.69-6 6-6 3.309 0 6 2.69 6 6 0 3.308-2.691 6-6 6a5.964 5.964 0 0 1-4.023-1.563l-8.703 8.703c.463.851.726 1.824.726 2.86 0 3.309-2.691 6-6 6s-6-2.691-6-6c0-1.549.595-2.959 1.562-4.024l-4.538-4.538a5.962 5.962 0 0 1-8.047-.001l-3.526 3.526a5.97 5.97 0 0 1 1.562 4.024c0 3.309-2.691 6-6 6-3.31 0-6.001-2.69-6.001-6zM829 2017.999a4.003 4.003 0 0 0 4 4c2.206 0 4-1.794 4-4a4.004 4.004 0 0 0-4-4c-2.206 0-4 1.793-4 4zm-14 12c-2.206 0-4 1.794-4 4s1.794 4 4 4 4-1.794 4-4-1.794-4-4-4zm-17-9c0 2.206 1.794 4 4 4s4-1.794 4-4c0-2.207-1.794-4-4-4s-4 1.793-4 4zm-11.987 11.987c0 2.206 1.794 4 4 4s4-1.794 4-4c0-2.207-1.794-4-4-4s-4 1.793-4 4z"/></defs><g><g transform="translate(-779 -1990)"><use fill="#ffc000" xlink:href="#yauca"/></g></g></svg>