<svg xmlns="http://www.w3.org/2000/svg" xmlns:xlink="http://www.w3.org/1999/xlink" width="60" height="54" viewBox="0 0 60 54"><defs><path id="c7n1a" d="M445.001 2901.998a6.96 6.96 0 0 1-2.047 4.95l-2.826 2.828-24.451 22.117-.002.001-4.453 4.027-.003.003-6.984 6.317c-.053.046-.115.07-.173.106.02 1.753-.055 3.806-1.445 5.22-.933.95-2.32 1.432-4.125 1.432H386.07a1.002 1.002 0 0 1-.367-1.93c.218-.089 5.377-2.211 5.377-7.154 0-4.916 4.02-4.916 6.179-4.916h.414c.29 0 .574.023.852.059l5.613-6.226 4.022-4.462 22.045-24.456 2.86-2.864a6.943 6.943 0 0 1 4.945-2.052c1.867 0 3.623.73 4.944 2.052a6.956 6.956 0 0 1 2.047 4.948zm-31.446 29.118l-4.617-4.624-2.681 2.973 4.33 4.335zm-11.496 10.824c-.004-.248-.008-.49-.008-.72 0-.065-.016-.125-.018-.19 0-.008-.006-.015-.006-.024a4.147 4.147 0 0 0-.584-1.93l-.021-.038a4.24 4.24 0 0 0-.336-.46 4.183 4.183 0 0 0-.485-.502c-.052-.045-.108-.086-.162-.128a4.115 4.115 0 0 0-.431-.306c-.034-.02-.072-.035-.106-.055a4.441 4.441 0 0 0-1.22-.47c-.008-.002-.015-.006-.022-.007a4.634 4.634 0 0 0-.986-.112h-.414c-2.843 0-4.181.288-4.181 2.917 0 3.345-1.786 5.644-3.507 7.084h8.92c1.249 0 2.158-.28 2.701-.834.92-.935.89-2.683.866-4.225zm7.045-6.796l-4.186-4.191-4.276 4.743a6.129 6.129 0 0 1 3.254 4.157zm33.9-33.146a4.968 4.968 0 0 0-1.462-3.535 4.966 4.966 0 0 0-3.532-1.465 4.963 4.963 0 0 0-3.531 1.465l-2.826 2.828-21.375 23.715 4.762 4.768 23.713-21.446 2.788-2.795a4.97 4.97 0 0 0 1.463-3.535z"/></defs><g><g transform="translate(-385 -2895)"><use fill="#ffc000" xlink:href="#c7n1a"/></g></g></svg>