<svg xmlns="http://www.w3.org/2000/svg" xmlns:xlink="http://www.w3.org/1999/xlink" width="60" height="51" viewBox="0 0 60 51"><defs><path id="vydpa" d="M845 2735.97c0 6.633-5.396 12.028-12.028 12.028H829a.999.999 0 1 1 0-2h3.972c5.529 0 10.028-4.498 10.028-10.028 0-4.81-3.51-9.1-8.166-9.984-.136-.02-2.457-.335-4.684.002a.995.995 0 0 1-1.138-.84 1 1 0 0 1 .838-1.138c1.531-.232 3.062-.196 4.083-.124-.671-7.753-7.104-13.888-14.849-13.888-4.696 0-9.417 2.38-12.284 6.13a8.977 8.977 0 0 1 3.2 6.87 1 1 0 1 1-2 0 6.995 6.995 0 0 0-3.91-6.27c-.07-.035-.139-.07-.21-.102a6.866 6.866 0 0 0-.835-.32l-.106-.028a6.84 6.84 0 0 0-.79-.176c-.076-.013-.154-.027-.232-.036a6.897 6.897 0 0 0-.917-.068c-3.859 0-7 3.141-7 7 0 .087.007.172.013.256l.013.195-.011.184c-.007.124-.015.245-.015.365v.631l-.567.27c-3.728 1.787-6.433 6.099-6.433 10.253 0 5.982 4.865 10.847 10.845 10.847H803a.999.999 0 1 1 0 2h-5.155c-7.083 0-12.845-5.764-12.845-12.847 0-4.755 2.857-9.506 7.017-11.773a5.286 5.286 0 0 1-.017-.38c0-4.964 4.037-9 9-9 .34 0 .677.023 1.009.06.102.01.2.03.302.045.232.035.462.075.687.125.116.027.23.059.345.09a9.184 9.184 0 0 1 .962.317c.205.082.406.172.604.27.076.035.155.062.23.1 3.257-4.344 8.515-7.008 13.945-7.008 8.945 0 16.364 7.194 16.892 16.194 5.197 1.367 9.024 6.289 9.024 11.778zm-20.293 13.321a1 1 0 0 1 0 1.414l-7.999 8a.99.99 0 0 1-.326.216.986.986 0 0 1-.764 0 .991.991 0 0 1-.326-.217l-8-7.999a1 1 0 1 1 1.415-1.414l6.293 6.293v-20.586a1 1 0 1 1 2 0v20.586l6.293-6.293a1 1 0 0 1 1.414 0z"/></defs><g><g transform="translate(-785 -2708)"><use fill="#ffc000" xlink:href="#vydpa"/></g></g></svg>