<svg xmlns="http://www.w3.org/2000/svg" xmlns:xlink="http://www.w3.org/1999/xlink" width="56" height="56" viewBox="0 0 56 56"><defs><path id="1dzoa" d="M445 2716.465v39.067c0 4.668-3.798 8.466-8.467 8.466h-39.066c-4.669 0-8.467-3.798-8.467-8.466v-39.067c0-4.668 3.798-8.467 8.467-8.467h39.066c4.669 0 8.467 3.799 8.467 8.467zm-2 0a6.474 6.474 0 0 0-6.467-6.467h-39.066a6.474 6.474 0 0 0-6.467 6.467v19.119l4.833-4.833A4.967 4.967 0 0 1 395 2728c0-2.758 2.243-5 5-5s5 2.242 5 5a4.968 4.968 0 0 1-.833 2.752l10.08 10.08a4.968 4.968 0 0 1 5.506 0L433.586 2727H427a1 1 0 1 1 0-2h10v10a1 1 0 1 1-2 0v-6.586l-13.833 13.832c.524.792.833 1.736.833 2.753 0 2.757-2.243 5-5 5s-5-2.243-5-5c0-1.017.309-1.961.833-2.753l-10.08-10.08a4.968 4.968 0 0 1-5.506 0l-6.247 6.248v17.12a6.474 6.474 0 0 0 6.467 6.466h39.066a6.474 6.474 0 0 0 6.467-6.467zm-40 11.534c0-1.655-1.346-3-3-3s-3 1.345-3 3a3.003 3.003 0 0 0 3 2.999c1.654 0 3-1.345 3-3zm14 13.999c-1.654 0-3 1.347-3 3 0 1.654 1.346 3 3 3s3-1.346 3-3c0-1.653-1.346-3-3-3z"/></defs><g><g transform="translate(-389 -2708)"><use fill="#ffc000" xlink:href="#1dzoa"/></g></g></svg>